<?xml version="1.0" encoding="utf-8"?>
<!-- Generator: Adobe Illustrator 26.4.1, SVG Export Plug-In . SVG Version: 6.00 Build 0)  -->
<svg version="1.1" id="Layer_1" xmlns="http://www.w3.org/2000/svg" xmlns:xlink="http://www.w3.org/1999/xlink" x="0px" y="0px"
	 viewBox="0 0 640 640" style="enable-background:new 0 0 640 640;" xml:space="preserve">
<style type="text/css">
	.st0{fill:#1576B9;}
	.st1{fill:#008933;}
	.st2{fill:#1B9447;}
	.st3{fill:#1B9554;}
	.st4{fill:none;}
	.st5{font-family:'Apple-Chancery';}
	.st6{font-size:48px;}
	.st7{fill:#FFFFFF;}
	.st8{font-family:'HelveticaNeue';}
	.st9{font-size:24px;}
	.st10{font-family:'BradleyHandITCTT-Bold';}
	.st11{font-size:21px;}
	.st12{fill:#000030;}
	.st13{fill:none;stroke:#217D3C;stroke-miterlimit:10;}
	.st14{fill:none;stroke:#0569BE;stroke-miterlimit:10;}
	.st15{fill:none;stroke:#1A9446;stroke-width:6;}
	.st16{fill:#1A9446;}
	.st17{fill:none;stroke:#1576B9;stroke-width:6;}
</style>
<path class="st0" d="M560,118c0,0-105.1,0.8-153.9,0c-41.3-0.6-77.1,28-87.8,65.2c-15.9,55.5,30.9,88.1,40.3,135.7
	c2.2,11,2.8,22.1,2,33c-3.8,49.3-37.1,95.9-88.6,112.2c-12.5,4-26.2,5.9-39.4,6.1c-35.1,0.5-104.1,0.5-135.7,0.5
	c-9.1,0-16.5,7.3-16.7,16.4c0,0.1,0,0.2,0,0.3c-0.1,9.2,7.3,16.8,16.6,16.8c32,0.1,101.3,0.2,137.2-0.1
	c87.4-0.8,148.7-67.9,158.4-137c2.3-16.7,2.4-32.7,0.2-48.1c-3.5-24.9-13.5-47.8-28-70.1c-13.2-20.3-16.1-29.6-16.1-40.4
	c0-30.5,23.1-56,53.2-56.6c41-0.8,82.1-0.2,122.9-0.2v184.4h-63.9c-17.7,0-32.5,13.1-34.9,30.6h134.3L560,118"/>
<path class="st1" d="M212.3,249.4h-70.9c-4.4,0-8-3.6-8-8l0,0v-0.9c0-4.4,3.6-8,8-8l0,0h70.9c4.4,0,8,3.6,8,8v0.9
	C220.3,245.8,216.7,249.4,212.3,249.4 M219.5,282.7h-78.1c-4.4,0-8-3.6-8-8v-0.9c0-4.4,3.6-8,8-8h78.1c4.4,0,8,3.6,8,8v0.9
	C227.5,279.1,224,282.7,219.5,282.7 M234.6,316h-93.1c-4.4,0-8-3.6-8-8l0,0v-0.9c0-4.4,3.6-8,8-8l0,0h93.1c4.4,0,8,3.6,8,8v0.9
	C242.6,312.4,239,316,234.6,316L234.6,316 M257.4,349.3h-116c-4.4,0-8-3.6-8-8v-0.9c0-4.4,3.6-8,8-8l0,0h116c4.4,0,8,3.6,8,8l0,0
	v0.9C265.4,345.7,261.8,349.3,257.4,349.3L257.4,349.3 M243.1,382.6H141.9c-4.7,0-8.4-3.8-8.4-8.4s3.8-8.4,8.4-8.4h101.2
	c4.7,0,8.4,3.8,8.4,8.4S247.7,382.6,243.1,382.6"/>
<path class="st2" d="M80.1,433.5c0,0,105.1-0.8,153.9,0c41.3,0.6,77.1-28,87.8-65.2c15.9-55.5-30.9-88.1-40.3-135.7
	c-2.2-11-2.8-22.1-2-33c3.8-49.3,37.1-95.9,88.6-112.2c12.5-4,26.2-5.9,39.4-6.1c35.1-0.5,104.1-0.5,135.7-0.5
	c9.1,0,16.5-7.3,16.7-16.4c0-0.1,0-0.2,0-0.3c0.1-9.2-7.3-16.8-16.6-16.8c-32-0.1-101.3-0.2-137.2,0.1
	c-87.4,0.8-148.7,67.9-158.4,137c-2.3,16.7-2.4,32.7-0.2,48.1c3.5,24.9,13.5,47.8,28,70.1c13.2,20.3,16.1,29.6,16.1,40.4
	c0,30.5-23.1,56-53.2,56.6c-41,0.8-82.1,0.2-122.9,0.2V215.1h63.9c17.7,0,32.5-13.1,34.9-30.6H80.1V433.5 M428.1,302h70
	c4.7,0,8.4,3.8,8.4,8.4s-3.8,8.4-8.4,8.4h-70c-4.7,0-8.4-3.8-8.4-8.4S423.5,302,428.1,302 M420.9,268.7h77.2c4.7,0,8.4,3.8,8.4,8.4
	c0,4.7-3.8,8.4-8.4,8.4l0,0h-77.2c-4.7,0-8.4-3.8-8.4-8.4l0,0C412.5,272.5,416.2,268.7,420.9,268.7"/>
<path class="st3" d="M405.9,235.4h92.3c4.7,0,8.4,3.8,8.4,8.4l0,0c0,4.6-3.8,8.4-8.4,8.4h-92.3c-4.7,0-8.4-3.8-8.4-8.4
	C397.4,239.2,401.2,235.4,405.9,235.4L405.9,235.4 M382.6,202.1h116c4.4,0,8,3.6,8,8l0,0v0.9c0,4.4-3.6,8-8,8l0,0h-116
	c-4.4,0-8-3.6-8-8l0,0v-0.9C374.6,205.7,378.2,202.1,382.6,202.1L382.6,202.1 M396.5,168.8h102c4.4,0,8,3.6,8,8l0,0v0.9
	c0,4.4-3.6,8-8,8l0,0h-102c-4.4,0-8-3.6-8-8l0,0v-0.9C388.5,172.4,392.1,168.8,396.5,168.8L396.5,168.8"/>
<path class="st0" d="M427.5,302l70.9,0.1c4.4,0,8,3.6,8,8l0,0v0.9c0,4.4-3.6,8-8,8l0,0l-70.9-0.1c-4.4,0-8-3.6-8-8V310
	C419.5,305.5,423.1,302,427.5,302 M420.3,268.7l78.1,0.1c4.4,0,8,3.6,8,8v0.9c0,4.4-3.6,8-8,8l-78.1-0.1c-4.4,0-8-3.6-8-8v-0.9
	C412.3,272.2,415.9,268.7,420.3,268.7 M405.4,235.4l93.1,0.2c4.4,0,8,3.6,8,8l0,0v0.9c0,4.4-3.6,8-8,8l0,0l-93.1-0.2
	c-4.4,0-8-3.6-8-8v-0.9C397.4,238.9,400.9,235.3,405.4,235.4L405.4,235.4 M382.6,202l116,0.2c4.4,0,8,3.6,8,8v0.9c0,4.4-3.6,8-8,8
	l0,0l-116-0.2c-4.4,0-8-3.6-8-8l0,0V210C374.6,205.6,378.2,202,382.6,202L382.6,202 M397,168.7l101.2,0.2c4.7,0,8.4,3.8,8.4,8.4
	s-3.8,8.4-8.4,8.4L397,185.6c-4.7,0-8.4-3.8-8.4-8.4C388.6,172.5,392.3,168.7,397,168.7"/>
<rect x="43.9" y="48.2" class="st4" width="221.9" height="102.8"/>
<text transform="matrix(1 0 0 1 63.0655 89.6947)" class="st5 st6">BinDash</text>
<rect x="77" y="479.3" class="st4" width="58" height="35.7"/>
<text transform="matrix(1 0 0 1 98.2833 496.4104)" class="st7 st8 st9">A</text>
<rect x="129.9" y="478.3" class="st4" width="58" height="35.7"/>
<text transform="matrix(1 0 0 1 151.1223 495.4104)" class="st7 st8 st9">A</text>
<rect x="183.3" y="478.3" class="st4" width="58" height="35.7"/>
<text transform="matrix(1 0 0 1 205.376 495.4608)" class="st7 st8 st9">T</text>
<rect x="236.2" y="476.3" class="st4" width="58" height="35.7"/>
<text transform="matrix(1 0 0 1 258.3414 493.4608)" class="st7 st8 st9">T</text>
<rect x="293.7" y="444.1" class="st4" width="58" height="35.7"/>
<text transform="matrix(1 0 0 1 314.894 461.2079)" class="st7 st8 st9">A</text>
<rect x="339.6" y="385.7" class="st4" width="58" height="35.7"/>
<text transform="matrix(1 0 0 1 359.9215 402.8114)" class="st7 st8 st9">C</text>
<rect x="345.6" y="325.9" class="st4" width="58" height="35.7"/>
<text transform="matrix(1 0 0 1 367.7262 343.0001)" class="st7 st8 st9">T</text>
<rect x="329.1" y="259.4" class="st4" width="58" height="35.7"/>
<text transform="matrix(1 0 0 1 349.0466 276.4885)" class="st7 st8 st9">G</text>
<rect x="304.3" y="206.2" class="st4" width="58" height="35.7"/>
<text transform="matrix(1 0 0 1 326.4313 223.3624)" class="st7 st8 st9">T</text>
<rect x="322.2" y="142.8" class="st4" width="58" height="35.7"/>
<text transform="matrix(1 0 0 1 343.4822 159.9186)" class="st7 st8 st9">A</text>
<rect x="366.3" y="128.4" class="st4" width="58" height="35.7"/>
<text transform="matrix(1 0 0 1 387.5742 145.5335)" class="st7 st8 st9">A</text>
<rect x="414.5" y="128.4" class="st4" width="58" height="35.7"/>
<text transform="matrix(1 0 0 1 436.6527 145.5335)" class="st7 st8 st9">T</text>
<rect x="465" y="128.4" class="st4" width="58" height="35.7"/>
<text transform="matrix(1 0 0 1 486.2821 145.5335)" class="st7 st8 st9">A</text>
<rect x="515.2" y="128.4" class="st4" width="58" height="35.7"/>
<text transform="matrix(1 0 0 1 535.5281 145.5335)" class="st7 st8 st9">C</text>
<rect x="327.1" y="476.3" class="st4" width="271" height="102.8"/>
<text transform="matrix(1 0 0 1 333.1564 490.1008)" class="st10 st11">Bin</text>
<text transform="matrix(1 0 0 1 368.4564 490.1008)" class="st12 st10 st11">wise</text>
<text transform="matrix(1 0 0 1 407.0564 490.1008)" class="st10 st11"> Densified MinHash</text>
<rect x="137.8" y="364" class="st4" width="32.9" height="20.3"/>
<text transform="matrix(1 0 0 1 147.8982 379.7735)" class="st7 st10 st9">1</text>
<rect x="194.8" y="330.7" class="st4" width="32.9" height="20.3"/>
<text transform="matrix(1 0 0 1 204.9095 346.4785)" class="st7 st10 st9">1</text>
<rect x="131.4" y="296.9" class="st4" width="32.9" height="20.3"/>
<text transform="matrix(1 0 0 1 141.5021 312.636)" class="st7 st10 st9">1</text>
<rect x="131.4" y="231.2" class="st4" width="32.9" height="20.3"/>
<text transform="matrix(1 0 0 1 141.5021 246.933)" class="st7 st10 st9">1</text>
<rect x="171.6" y="364" class="st4" width="32.9" height="20.3"/>
<text transform="matrix(1 0 0 1 181.4674 379.7735)" class="st7 st10 st9">0</text>
<rect x="209.7" y="364" class="st4" width="32.9" height="20.3"/>
<text transform="matrix(1 0 0 1 219.6002 379.7735)" class="st7 st10 st9">0</text>
<rect x="188" y="231.2" class="st4" width="32.9" height="20.3"/>
<text transform="matrix(1 0 0 1 197.8945 246.933)" class="st7 st10 st9">0</text>
<rect x="212.3" y="297.6" class="st4" width="32.9" height="20.3"/>
<text transform="matrix(1 0 0 1 222.1513 313.3533)" class="st7 st10 st9">0</text>
<rect x="161.6" y="330.5" class="st4" width="32.9" height="20.3"/>
<text transform="matrix(1 0 0 1 171.4905 346.2047)" class="st7 st10 st9">0</text>
<rect x="274.5" y="105.2" class="st4" width="58" height="35.7"/>
<text transform="matrix(1 0 0 1 296.6114 122.3411)" class="st7 st8 st9">T</text>
<rect x="332.5" y="63.9" class="st4" width="58" height="35.7"/>
<text transform="matrix(1 0 0 1 354.6307 81.0386)" class="st7 st8 st9">T</text>
<rect x="402.1" y="53.4" class="st4" width="58" height="35.7"/>
<text transform="matrix(1 0 0 1 423.3656 70.5417)" class="st7 st8 st9">A</text>
<rect x="467.1" y="54.1" class="st4" width="58" height="35.7"/>
<text transform="matrix(1 0 0 1 489.1959 71.2314)" class="st7 st8 st9">T</text>
<rect x="510.7" y="54.1" class="st4" width="58" height="35.7"/>
<text transform="matrix(1 0 0 1 530.6112 71.2314)" class="st7 st8 st9">G</text>
<rect x="234.5" y="174.8" class="st4" width="58" height="35.7"/>
<text transform="matrix(1 0 0 1 255.6965 191.9165)" class="st7 st8 st9">A</text>
<rect x="240.4" y="244.4" class="st4" width="58" height="35.7"/>
<text transform="matrix(1 0 0 1 260.7441 261.4918)" class="st7 st8 st9">C</text>
<rect x="266.1" y="289.5" class="st4" width="58" height="35.7"/>
<text transform="matrix(1 0 0 1 287.3052 306.6241)" class="st7 st8 st9">A</text>
<rect x="276.9" y="352.9" class="st4" width="58" height="35.7"/>
<text transform="matrix(1 0 0 1 296.8 370.0543)" class="st7 st8 st9">G</text>
<rect x="252" y="394.6" class="st4" width="58" height="35.7"/>
<text transform="matrix(1 0 0 1 274.0766 411.692)" class="st7 st8 st9">T</text>
<rect x="205.5" y="408.6" class="st4" width="58" height="35.7"/>
<text transform="matrix(1 0 0 1 226.6869 425.7151)" class="st7 st8 st9">A</text>
<rect x="159" y="408.6" class="st4" width="58" height="35.7"/>
<text transform="matrix(1 0 0 1 180.2311 425.7151)" class="st7 st8 st9">A</text>
<rect x="119" y="408.6" class="st4" width="58" height="35.7"/>
<text transform="matrix(1 0 0 1 141.1305 425.7151)" class="st7 st8 st9">T</text>
<rect x="73.4" y="408.6" class="st4" width="58" height="35.7"/>
<text transform="matrix(1 0 0 1 95.4779 425.7151)" class="st7 st8 st9">T</text>
<rect x="477.6" y="233.7" class="st4" width="32.9" height="20.3"/>
<text transform="matrix(1 0 0 1 487.5184 249.4471)" class="st7 st10 st9">0</text>
<rect x="396" y="200.4" class="st4" width="32.9" height="20.3"/>
<text transform="matrix(1 0 0 1 406.1677 216.1566)" class="st7 st10 st9">1</text>
<rect x="446.5" y="300.1" class="st4" width="32.9" height="20.3"/>
<text transform="matrix(1 0 0 1 456.6301 315.7996)" class="st7 st10 st9">1</text>
<rect x="475.5" y="264.9" class="st4" width="32.9" height="20.3"/>
<text transform="matrix(1 0 0 1 485.6398 280.6143)" class="st7 st10 st9">1</text>
<rect x="431.1" y="267" class="st4" width="32.9" height="20.3"/>
<text transform="matrix(1 0 0 1 441.0291 282.7621)" class="st7 st10 st9">0</text>
<g>
	<g>
		<path class="st13" d="M185.3,143c0,6.4-5.5,5.9-7.6,11.4"/>
		<path class="st13" d="M182.8,156.4c2.3-6-3-7.5-3-13.4"/>
	</g>
	<line class="st13" x1="185.2" y1="144.2" x2="179.8" y2="144.1"/>
	<line class="st13" x1="180.4" y1="146.4" x2="184.4" y2="146.8"/>
	<line class="st13" x1="183.2" y1="155.3" x2="178.1" y2="153.5"/>
	<line class="st13" x1="179.5" y1="151.5" x2="183.4" y2="152.5"/>
</g>
<g>
	<g>
		<path class="st13" d="M182.8,156.4c-2.2,5.9-7.2,3.4-11.2,7.9"/>
		<path class="st13" d="M175.6,168c0.8-0.9,1.5-2,1.8-3.2c0.9-3.7-1.5-5.6,0.3-10.3"/>
	</g>
	<line class="st13" x1="182.3" y1="157.5" x2="177.3" y2="155.4"/>
	<line class="st13" x1="177" y1="157.8" x2="180.6" y2="159.6"/>
	<line class="st13" x1="176.4" y1="167.1" x2="172.3" y2="163.6"/>
	<line class="st13" x1="174.3" y1="162.2" x2="177.5" y2="164.6"/>
</g>
<g>
	<g>
		<path class="st13" d="M175.6,168c-4.5,4.8-7.7,0.6-13.3,3.3"/>
		<path class="st13" d="M164.7,176.2c5.7-2.8,2.8-7.7,6.8-11.9"/>
	</g>
	<line class="st13" x1="174.8" y1="168.9" x2="170.9" y2="165.1"/>
	<line class="st13" x1="169.7" y1="167.2" x2="172.4" y2="170.2"/>
	<line class="st13" x1="165.8" y1="175.6" x2="163.3" y2="170.9"/>
	<line class="st13" x1="165.6" y1="170.3" x2="167.8" y2="173.7"/>
</g>
<g>
	<g>
		<path class="st13" d="M164.7,176.2c-5.6,2.9-7.6-2.3-13.6-1.7"/>
		<path class="st13" d="M151.6,179.9c6.3-0.6,5.3-5.9,10.7-8.6"/>
	</g>
	<line class="st13" x1="163.6" y1="176.7" x2="161.4" y2="171.8"/>
	<line class="st13" x1="159.6" y1="173.3" x2="161" y2="177.1"/>
	<line class="st13" x1="152.9" y1="179.8" x2="152.2" y2="174.4"/>
	<line class="st13" x1="154.6" y1="174.8" x2="155.4" y2="178.7"/>
</g>
<g>
	<g>
		<path class="st13" d="M151.6,179.9c-6.5,0.6-6.2-5-12.1-6.5"/>
		<path class="st13" d="M138.1,178.7c6.3,1.7,7.1-3.7,13.1-4.2"/>
	</g>
	<line class="st13" x1="150.4" y1="180" x2="150.1" y2="174.6"/>
	<line class="st13" x1="147.9" y1="175.4" x2="147.8" y2="179.4"/>
	<line class="st13" x1="139.3" y1="179" x2="140.6" y2="173.7"/>
	<line class="st13" x1="142.7" y1="174.9" x2="142" y2="178.9"/>
</g>
<g>
	<g>
		<path class="st13" d="M138.1,178.7c-6.2-1.8-4-6.6-8.9-10.5"/>
		<path class="st13" d="M125.9,172.6c4.9,3.9,8.1-0.9,13.7,0.8"/>
	</g>
	<line class="st13" x1="136.9" y1="178.3" x2="138.6" y2="173.1"/>
	<line class="st13" x1="136.2" y1="173.1" x2="134.7" y2="176.8"/>
	<line class="st13" x1="126.9" y1="173.3" x2="130" y2="168.9"/>
	<line class="st13" x1="131.6" y1="170.8" x2="129.5" y2="174.2"/>
</g>
<g>
	<g>
		<path class="st13" d="M125.9,172.6c-5.1-3.9-1.4-7.8-4.5-13"/>
		<path class="st13" d="M116.7,162.6c3.4,5.5,7.8,2.1,12.5,5.7"/>
	</g>
	<line class="st13" x1="125" y1="171.8" x2="128.4" y2="167.6"/>
	<line class="st13" x1="126.2" y1="166.7" x2="123.4" y2="169.6"/>
	<line class="st13" x1="117.4" y1="163.6" x2="121.9" y2="160.6"/>
	<line class="st13" x1="122.7" y1="162.9" x2="119.5" y2="165.4"/>
</g>
<g>
	<g>
		<path class="st13" d="M116.7,162.6c-3.4-5.5,1.6-7.8,0.5-13.7"/>
		<path class="st13" d="M111.8,149.9c1.2,6.3,6.5,4.8,9.6,9.8"/>
	</g>
	<line class="st13" x1="116.1" y1="161.5" x2="120.8" y2="158.8"/>
	<line class="st13" x1="119.1" y1="157.1" x2="115.5" y2="158.9"/>
	<line class="st13" x1="112" y1="151.1" x2="117.3" y2="149.9"/>
	<line class="st13" x1="117.2" y1="152.3" x2="113.4" y2="153.5"/>
</g>
<g>
	<g>
		<path class="st13" d="M111.8,149.9c-1.2-6.3,4.2-6.6,5.4-12.6"/>
		<path class="st13" d="M111.8,136.2c-1.2,6.3,4.2,6.6,5.4,12.6"/>
	</g>
	<line class="st13" x1="111.6" y1="148.7" x2="117" y2="147.8"/>
	<line class="st13" x1="116" y1="145.7" x2="112" y2="146"/>
	<line class="st13" x1="111.6" y1="137.5" x2="117" y2="138.3"/>
	<line class="st13" x1="116" y1="140.5" x2="112" y2="140.2"/>
</g>
<g>
	<g>
		<path class="st13" d="M111.8,136.2c1.2-6.4,6.3-4.6,9.6-9.8"/>
		<path class="st13" d="M116.7,123.5c-3.4,5.4,1.6,7.8,0.5,13.7"/>
	</g>
	<line class="st13" x1="112.1" y1="135.1" x2="117.4" y2="136.2"/>
	<line class="st13" x1="117.2" y1="133.8" x2="113.4" y2="132.7"/>
	<line class="st13" x1="116.1" y1="124.6" x2="120.8" y2="127.3"/>
	<line class="st13" x1="119.1" y1="129" x2="115.4" y2="127.3"/>
</g>
<g>
	<g>
		<path class="st13" d="M116.7,123.5c3.4-5.4,7.8-2.1,12.5-5.7"/>
		<path class="st13" d="M125.9,113.5c-5.1,3.9-1.3,7.7-4.5,13"/>
	</g>
	<line class="st13" x1="117.4" y1="122.5" x2="121.9" y2="125.6"/>
	<line class="st13" x1="122.7" y1="123.3" x2="119.5" y2="120.8"/>
	<line class="st13" x1="124.9" y1="114.2" x2="128.3" y2="118.5"/>
	<line class="st13" x1="126.1" y1="119.4" x2="123.4" y2="116.5"/>
</g>
<g>
	<g>
		<path class="st13" d="M125.9,113.5c5-3.9,8.1,0.9,13.7-0.8"/>
		<path class="st13" d="M138.1,107.4c-6.1,1.8-4.1,6.7-8.9,10.5"/>
	</g>
	<line class="st13" x1="126.9" y1="112.8" x2="130" y2="117.2"/>
	<line class="st13" x1="131.5" y1="115.4" x2="129.4" y2="111.9"/>
	<line class="st13" x1="136.9" y1="107.8" x2="138.6" y2="112.9"/>
	<line class="st13" x1="136.1" y1="113" x2="134.6" y2="109.3"/>
</g>
<g>
	<g>
		<path class="st13" d="M138.1,107.4c6.4-1.7,7,3.7,13.1,4.2"/>
		<path class="st13" d="M151.6,106.1c-6.4-0.6-6.4,5-12.1,6.5"/>
	</g>
	<line class="st13" x1="139.2" y1="107.1" x2="140.6" y2="112.4"/>
	<line class="st13" x1="142.6" y1="111.2" x2="142" y2="107.2"/>
	<line class="st13" x1="150.4" y1="106.1" x2="150.1" y2="111.5"/>
	<line class="st13" x1="147.8" y1="110.7" x2="147.7" y2="106.7"/>
</g>
<g>
	<g>
		<path class="st13" d="M151.6,106.1c6.3,0.6,5.3,5.9,10.7,8.6"/>
		<path class="st13" d="M164.7,109.9c-5.7-2.9-7.6,2.3-13.6,1.7"/>
	</g>
	<line class="st13" x1="152.8" y1="106.3" x2="152.2" y2="111.7"/>
	<line class="st13" x1="154.5" y1="111.3" x2="155.3" y2="107.4"/>
	<line class="st13" x1="163.6" y1="109.3" x2="161.4" y2="114.3"/>
	<line class="st13" x1="159.5" y1="112.7" x2="160.9" y2="108.9"/>
</g>
<g>
	<g>
		<path class="st13" d="M164.7,109.9c5.8,2.8,2.7,7.6,6.8,11.9"/>
		<path class="st13" d="M175.6,118.1c-4.4-4.7-7.9-0.7-13.3-3.3"/>
	</g>
	<line class="st13" x1="165.8" y1="110.5" x2="163.2" y2="115.2"/>
	<line class="st13" x1="165.5" y1="115.8" x2="167.7" y2="112.4"/>
	<line class="st13" x1="174.8" y1="117.2" x2="170.9" y2="121"/>
	<line class="st13" x1="169.7" y1="118.9" x2="172.4" y2="115.8"/>
</g>
<g>
	<g>
		<path class="st13" d="M175.6,118.1c4.3,4.7,0,7.8,2.1,13.6"/>
		<path class="st13" d="M182.8,129.7c-2.2-5.8-7.3-3.6-11.2-7.9"/>
	</g>
	<line class="st13" x1="176.4" y1="119" x2="172.3" y2="122.5"/>
	<line class="st13" x1="174.2" y1="123.9" x2="177.5" y2="121.5"/>
	<line class="st13" x1="182.3" y1="128.5" x2="177.3" y2="130.6"/>
	<line class="st13" x1="177" y1="128.2" x2="180.6" y2="126.4"/>
</g>
<g>
	<g>
		<path class="st13" d="M182.8,129.7c2.3,6.1-3,7.5-3,13.4"/>
		<path class="st13" d="M185.3,143c0-6.4-5.5-6-7.6-11.4"/>
	</g>
	<line class="st13" x1="183.2" y1="130.8" x2="178" y2="132.6"/>
	<line class="st13" x1="179.4" y1="134.5" x2="183.3" y2="133.5"/>
	<line class="st13" x1="185.2" y1="141.8" x2="179.8" y2="142"/>
	<line class="st13" x1="180.4" y1="139.6" x2="184.4" y2="139.2"/>
</g>
<g>
	<g>
		<path class="st14" d="M529,413.5c-0.1,6.8-5.9,6.3-8.1,12.1"/>
		<path class="st14" d="M526.4,427.8c2.4-6.4-3.2-7.9-3.2-14.2"/>
	</g>
	<line class="st14" x1="529" y1="414.8" x2="523.2" y2="414.6"/>
	<line class="st14" x1="523.8" y1="417.1" x2="528.1" y2="417.5"/>
	<line class="st14" x1="526.8" y1="426.5" x2="521.4" y2="424.6"/>
	<line class="st14" x1="522.8" y1="422.5" x2="527" y2="423.6"/>
</g>
<g>
	<g>
		<path class="st14" d="M526.4,427.8c-2.3,6.3-7.6,3.6-11.9,8.4"/>
		<path class="st14" d="M518.8,440c0.9-1,1.6-2.1,1.9-3.4c0.9-3.9-1.6-5.9,0.3-11"/>
	</g>
	<line class="st14" x1="525.9" y1="428.9" x2="520.6" y2="426.7"/>
	<line class="st14" x1="520.2" y1="429.2" x2="524" y2="431.1"/>
	<line class="st14" x1="519.6" y1="439" x2="515.2" y2="435.3"/>
	<line class="st14" x1="517.4" y1="433.9" x2="520.8" y2="436.4"/>
</g>
<g>
	<g>
		<path class="st14" d="M518.8,440c-4.7,5.1-8.2,0.6-14.1,3.5"/>
		<path class="st14" d="M507.2,448.7c6.1-2.9,3-8.1,7.2-12.6"/>
	</g>
	<line class="st14" x1="517.9" y1="440.9" x2="513.7" y2="436.9"/>
	<line class="st14" x1="512.5" y1="439.1" x2="515.4" y2="442.3"/>
	<line class="st14" x1="508.4" y1="448.1" x2="505.7" y2="443.1"/>
	<line class="st14" x1="508.2" y1="442.5" x2="510.5" y2="446.1"/>
</g>
<g>
	<g>
		<path class="st14" d="M507.2,448.7c-6,3-8.1-2.4-14.4-1.9"/>
		<path class="st14" d="M493.3,452.7c6.7-0.6,5.6-6.3,11.3-9.2"/>
	</g>
	<line class="st14" x1="506.1" y1="449.3" x2="503.7" y2="444"/>
	<line class="st14" x1="501.7" y1="445.7" x2="503.2" y2="449.7"/>
	<line class="st14" x1="494.6" y1="452.6" x2="493.9" y2="446.8"/>
	<line class="st14" x1="496.5" y1="447.2" x2="497.3" y2="451.4"/>
</g>
<g>
	<g>
		<path class="st14" d="M493.3,452.7c-6.9,0.6-6.6-5.3-12.8-6.9"/>
		<path class="st14" d="M478.9,451.4c6.6,1.8,7.6-3.9,13.9-4.5"/>
	</g>
	<line class="st14" x1="492.1" y1="452.8" x2="491.7" y2="447"/>
	<line class="st14" x1="489.3" y1="447.8" x2="489.3" y2="452.1"/>
	<line class="st14" x1="480.2" y1="451.7" x2="481.6" y2="446.1"/>
	<line class="st14" x1="483.8" y1="447.4" x2="483.1" y2="451.6"/>
</g>
<g>
	<g>
		<path class="st14" d="M478.9,451.4c-6.6-1.9-4.3-7-9.4-11.1"/>
		<path class="st14" d="M466,444.9c5.2,4.1,8.6-0.9,14.5,0.8"/>
	</g>
	<line class="st14" x1="477.7" y1="451" x2="479.5" y2="445.5"/>
	<line class="st14" x1="476.9" y1="445.4" x2="475.4" y2="449.4"/>
	<line class="st14" x1="467.1" y1="445.7" x2="470.4" y2="441"/>
	<line class="st14" x1="472" y1="443" x2="469.8" y2="446.6"/>
</g>
<g>
	<g>
		<path class="st14" d="M466,444.9c-5.4-4.1-1.5-8.3-4.8-13.7"/>
		<path class="st14" d="M456.3,434.2c3.6,5.8,8.3,2.2,13.2,6"/>
	</g>
	<line class="st14" x1="465" y1="444.1" x2="468.6" y2="439.6"/>
	<line class="st14" x1="466.3" y1="438.6" x2="463.4" y2="441.8"/>
	<line class="st14" x1="457" y1="435.3" x2="461.8" y2="432.2"/>
	<line class="st14" x1="462.6" y1="434.6" x2="459.2" y2="437.2"/>
</g>
<g>
	<g>
		<path class="st14" d="M456.3,434.2c-3.6-5.8,1.7-8.2,0.5-14.5"/>
		<path class="st14" d="M451,420.8c1.3,6.7,6.9,5.1,10.2,10.4"/>
	</g>
	<line class="st14" x1="455.6" y1="433.1" x2="460.6" y2="430.3"/>
	<line class="st14" x1="458.8" y1="428.5" x2="455" y2="430.4"/>
	<line class="st14" x1="451.3" y1="422" x2="456.9" y2="420.8"/>
	<line class="st14" x1="456.8" y1="423.4" x2="452.7" y2="424.6"/>
</g>
<g>
	<g>
		<path class="st14" d="M451,420.8c-1.2-6.7,4.4-7,5.7-13.4"/>
		<path class="st14" d="M451,406.3c-1.2,6.6,4.4,7,5.7,13.4"/>
	</g>
	<line class="st14" x1="450.9" y1="419.5" x2="456.6" y2="418.6"/>
	<line class="st14" x1="455.5" y1="416.3" x2="451.2" y2="416.7"/>
	<line class="st14" x1="450.8" y1="407.6" x2="456.5" y2="408.5"/>
	<line class="st14" x1="455.5" y1="410.8" x2="451.2" y2="410.5"/>
</g>
<g>
	<g>
		<path class="st14" d="M451,406.3c1.3-6.8,6.7-4.9,10.2-10.4"/>
		<path class="st14" d="M456.3,392.8c-3.6,5.8,1.7,8.3,0.5,14.5"/>
	</g>
	<line class="st14" x1="451.3" y1="405.1" x2="457" y2="406.3"/>
	<line class="st14" x1="456.8" y1="403.8" x2="452.7" y2="402.6"/>
	<line class="st14" x1="455.6" y1="394" x2="460.6" y2="396.8"/>
	<line class="st14" x1="458.8" y1="398.6" x2="454.9" y2="396.8"/>
</g>
<g>
	<g>
		<path class="st14" d="M456.3,392.8c3.6-5.8,8.3-2.2,13.2-6"/>
		<path class="st14" d="M466,382.2c-5.5,4.2-1.4,8.2-4.8,13.7"/>
	</g>
	<line class="st14" x1="457" y1="391.8" x2="461.8" y2="395"/>
	<line class="st14" x1="462.6" y1="392.6" x2="459.2" y2="389.9"/>
	<line class="st14" x1="465" y1="383" x2="468.6" y2="387.5"/>
	<line class="st14" x1="466.2" y1="388.5" x2="463.3" y2="385.4"/>
</g>
<g>
	<g>
		<path class="st14" d="M466,382.2c5.3-4.1,8.5,0.9,14.5-0.8"/>
		<path class="st14" d="M478.9,375.7c-6.5,1.9-4.3,7.1-9.4,11.1"/>
	</g>
	<line class="st14" x1="467.1" y1="381.4" x2="470.4" y2="386.1"/>
	<line class="st14" x1="472" y1="384.2" x2="469.8" y2="380.5"/>
	<line class="st14" x1="477.7" y1="376.1" x2="479.4" y2="381.6"/>
	<line class="st14" x1="476.9" y1="381.7" x2="475.3" y2="377.7"/>
</g>
<g>
	<g>
		<path class="st14" d="M478.9,375.7c6.8-1.8,7.4,3.9,13.9,4.5"/>
		<path class="st14" d="M493.3,374.4c-6.8-0.6-6.8,5.3-12.8,6.9"/>
	</g>
	<line class="st14" x1="480.2" y1="375.4" x2="481.6" y2="381"/>
	<line class="st14" x1="483.8" y1="379.8" x2="483" y2="375.5"/>
	<line class="st14" x1="492" y1="374.3" x2="491.7" y2="380"/>
	<line class="st14" x1="489.2" y1="379.2" x2="489.2" y2="374.9"/>
</g>
<g>
	<g>
		<path class="st14" d="M493.3,374.4c6.7,0.6,5.7,6.3,11.3,9.2"/>
		<path class="st14" d="M507.2,378.3c-6.1-3.1-8,2.4-14.4,1.9"/>
	</g>
	<line class="st14" x1="494.6" y1="374.6" x2="493.9" y2="380.3"/>
	<line class="st14" x1="496.4" y1="379.9" x2="497.2" y2="375.7"/>
	<line class="st14" x1="506" y1="377.8" x2="503.7" y2="383"/>
	<line class="st14" x1="501.7" y1="381.4" x2="503.2" y2="377.4"/>
</g>
<g>
	<g>
		<path class="st14" d="M507.2,378.3c6.1,3,2.9,8,7.2,12.6"/>
		<path class="st14" d="M518.8,387.1c-4.6-5-8.4-0.8-14.1-3.5"/>
	</g>
	<line class="st14" x1="508.3" y1="379" x2="505.6" y2="384"/>
	<line class="st14" x1="508.1" y1="384.6" x2="510.4" y2="381"/>
	<line class="st14" x1="517.9" y1="386.1" x2="513.7" y2="390.1"/>
	<line class="st14" x1="512.5" y1="387.9" x2="515.3" y2="384.7"/>
</g>
<g>
	<g>
		<path class="st14" d="M518.8,387.1c4.5,5,0,8.3,2.2,14.4"/>
		<path class="st14" d="M526.4,399.3c-2.3-6.2-7.7-3.8-11.9-8.4"/>
	</g>
	<line class="st14" x1="519.6" y1="388" x2="515.2" y2="391.8"/>
	<line class="st14" x1="517.3" y1="393.2" x2="520.7" y2="390.6"/>
	<line class="st14" x1="525.9" y1="398.1" x2="520.6" y2="400.4"/>
	<line class="st14" x1="520.2" y1="397.8" x2="524" y2="395.9"/>
</g>
<g>
	<g>
		<path class="st14" d="M526.4,399.3c2.4,6.4-3.2,7.9-3.2,14.2"/>
		<path class="st14" d="M529,413.5c-0.1-6.8-5.9-6.3-8.1-12.1"/>
	</g>
	<line class="st14" x1="526.8" y1="400.5" x2="521.3" y2="402.4"/>
	<line class="st14" x1="522.8" y1="404.5" x2="526.9" y2="403.4"/>
	<line class="st14" x1="529" y1="412.2" x2="523.2" y2="412.4"/>
	<line class="st14" x1="523.8" y1="409.9" x2="528.1" y2="409.5"/>
</g>
<path class="st15" d="M227.4,235.7c17.3,8.8,22.1,18.4,14.3,28.9l-1.6,1.4"/>
<polygon class="st16" points="236,258.1 228.6,276.2 247.5,271.2 "/>
<path class="st17" d="M373.3,204.7c-13.2-13.8-14.3-23.8-3.3-29.7l2.1-0.6"/>
<polygon class="st0" points="372.5,183.3 386.6,170 367.6,166.7 "/>
</svg>
